<svg width="24" height="24" viewBox="0 0 24 24" fill="none" xmlns="http://www.w3.org/2000/svg">
<circle cx="12" cy="12" r="11" stroke="#EEFFFF" stroke-width="2"/>
<path fill-rule="evenodd" clip-rule="evenodd" d="M17.4551 6.70708C17.8456 7.0976 17.8456 7.73077 17.4551 8.12129L8.12131 17.4551C7.73079 17.8456 7.09763 17.8456 6.7071 17.4551C6.31658 17.0646 6.31658 16.4314 6.7071 16.0409L16.0409 6.70708C16.4314 6.31655 17.0646 6.31655 17.4551 6.70708Z" fill="#EEFFFF"/>
<path fill-rule="evenodd" clip-rule="evenodd" d="M17.707 17.7071C17.3165 18.0976 16.6833 18.0976 16.2928 17.7071L6.95896 8.37327C6.56844 7.98274 6.56844 7.34958 6.95896 6.95905C7.34949 6.56853 7.98265 6.56853 8.37318 6.95905L17.707 16.2929C18.0975 16.6834 18.0975 17.3166 17.707 17.7071Z" fill="#EEFFFF"/>
</svg>
