<svg width="24" height="24" viewBox="0 0 24 24" fill="none" xmlns="http://www.w3.org/2000/svg">
<g clip-path="url(#clip0_156_1777)">
<path d="M12 23C18.0751 23 23 18.0751 23 12C23 5.92487 18.0751 1 12 1C5.92487 1 1 5.92487 1 12C1 18.0751 5.92487 23 12 23Z" stroke="#7BEAFA" stroke-width="2"/>
<path fill-rule="evenodd" clip-rule="evenodd" d="M17.4551 6.70708C17.8456 7.0976 17.8456 7.73077 17.4551 8.12129L8.12128 17.4551C7.73076 17.8456 7.0976 17.8456 6.70707 17.4551C6.31655 17.0646 6.31655 16.4314 6.70707 16.0409L16.0409 6.70708C16.4314 6.31655 17.0646 6.31655 17.4551 6.70708Z" fill="#7BEAFA"/>
<path fill-rule="evenodd" clip-rule="evenodd" d="M17.7069 17.7071C17.3164 18.0976 16.6832 18.0976 16.2927 17.7071L6.95891 8.37325C6.56839 7.98272 6.56839 7.34956 6.95891 6.95903C7.34944 6.56851 7.9826 6.56851 8.37313 6.95903L17.7069 16.2929C18.0974 16.6834 18.0974 17.3166 17.7069 17.7071Z" fill="#7BEAFA"/>
</g>
<defs>
<clipPath id="clip0_156_1777">
<rect width="24" height="24" fill="white"/>
</clipPath>
</defs>
</svg>
